<svg xmlns="http://www.w3.org/2000/svg" viewBox="0 0 126 58.839"><defs><style>.b{fill:#fff}</style></defs><path d="M122.51 27.75a2.429 2.429 0 1 0-2.4-2.429 2.394 2.394 0 0 0 2.4 2.429zm-23.997-4.629l-1.153 2.99h2.3zm-.751 16.163a2.429 2.429 0 1 0 2.39 2.429 2.4 2.4 0 0 0-2.39-2.429zm-5.741-4.986h1.761l-.881-2.429zm16.193 8.188h2.3l-1.146-2.99zm14.94-11.02a2.045 2.045 0 1 0 2.019 2.049 2.023 2.023 0 0 0-2.019-2.049z" fill="none"/><path class="b" d="M87.366 15.118l2.231 3.066 2.322-3.135v4.842h.433v-5.54h-.418l-2.33 3.112-2.247-3.112h-.433v5.54h.44zm8.486 4.85a1.855 1.855 0 0 0 1.89-1.882v-3.734h-.441v3.749a1.446 1.446 0 1 1-2.891.008v-3.757h-.44v3.734a1.849 1.849 0 0 0 1.882 1.882zm4.869-.404a1.733 1.733 0 0 1-1.479-.789l-.364.281a2.2 2.2 0 0 0 1.844.911 1.641 1.641 0 0 0 1.768-1.571c0-.994-.8-1.305-1.578-1.563-.714-.236-1.381-.44-1.381-1.154a1.087 1.087 0 0 1 1.2-1.017 1.475 1.475 0 0 1 1.29.638l.342-.266a1.963 1.963 0 0 0-1.631-.759 1.506 1.506 0 0 0-1.647 1.4c0 .956.79 1.245 1.556 1.5.721.236 1.412.47 1.412 1.222a1.213 1.213 0 0 1-1.332 1.167zm6.97-.09h-2.953v-2.155h2.953v-.41h-2.953v-2.14h2.953v-.417h-3.392v5.54h3.392zm3.005.494a1.855 1.855 0 0 0 1.889-1.882v-3.734h-.441v3.749a1.446 1.446 0 0 1-2.892.008v-3.757h-.44v3.734a1.85 1.85 0 0 0 1.884 1.882zm-36.73 2.582h.433v5.54h-.433zm2.509.661l3.582 4.879h.471v-5.54h-.44v4.857l-3.567-4.857h-.486v5.54h.44zm9.163-.661h-3.9v.4h1.73v5.14h.44v-5.137h1.731zm4.578 5.123h-2.952v-2.155h2.952v-.41h-2.952v-2.14h2.952v-.418h-3.392v5.54h3.392zm1.334.416h.441v-5.138h1.221a1.328 1.328 0 0 1 1.412 1.328 1.374 1.374 0 0 1-1.419 1.344h-.3l1.669 2.466h.516l-1.457-2.125a1.7 1.7 0 0 0 1.427-1.684 1.756 1.756 0 0 0-1.821-1.73h-1.693zm5.078.001l.593-1.548h2.618l.6 1.548h.463l-2.133-5.54h-.47l-2.132 5.54zm1.9-4.955l1.146 2.99h-2.3zm6.439 5.03a2.824 2.824 0 0 0 2.519-1.495l-.387-.2a2.348 2.348 0 0 1-2.132 1.275 2.433 2.433 0 0 1 0-4.865 2.374 2.374 0 0 1 2.064 1.207l.379-.22a2.844 2.844 0 1 0-2.443 4.3zm4.795-.075h.44v-5.137h1.73v-.4h-3.9v.4h1.731zm3.27-5.54h.433v5.54h-.433zm4.007 5.54l2.088-5.54h-.463l-1.844 4.926-1.845-4.926h-.455l2.079 5.54zm5.471.075a2.846 2.846 0 1 0-2.846-2.846 2.847 2.847 0 0 0 2.846 2.846zm0-5.274a2.429 2.429 0 1 1-2.4 2.429 2.394 2.394 0 0 1 2.4-2.426zM75.993 33.352l-1.882-2.6h-.819v5.54h.827v-4.159l1.859 2.527 1.921-2.587v4.22h.82v-5.54h-.782zm4.082 2.937h3.324v-.79h-2.5v-1.6h2.5v-.781h-2.5v-1.587h2.5v-.781h-3.324zm9.891-2.74v-.3h-2.854v.782H89.1a1.809 1.809 0 0 1-1.882 1.533 2.053 2.053 0 0 1-.008-4.105 1.93 1.93 0 0 1 1.768 1.07l.721-.432a2.862 2.862 0 1 0-2.482 4.265 2.687 2.687 0 0 0 2.749-2.813zm3.38-2.8h-.85l-2.034 5.54h.866l.425-1.184h2.337l.433 1.184h.857zm-1.305 3.567l.88-2.429.88 2.429zm4.229-3.567v5.54h3.066v-.79H97.1v-4.75zm3.995 0h.827v5.54h-.827zm2.304.774h1.571v4.766h.819v-4.766h1.572v-.774h-3.962zm4.795-.774h.827v5.54h-.827zm3.976 2.337c-.637-.213-1.222-.388-1.222-.919a.822.822 0 0 1 .926-.767 1.252 1.252 0 0 1 1.116.592l.676-.5a2.187 2.187 0 0 0-1.791-.82 1.627 1.627 0 0 0-1.776 1.51c0 1.017.812 1.321 1.563 1.563.637.2 1.245.387 1.245.956a.911.911 0 0 1-1 .888 1.517 1.517 0 0 1-1.328-.8l-.728.569a2.466 2.466 0 0 0 2.064 1.01 1.724 1.724 0 0 0 1.844-1.662c-.003-1.033-.831-1.362-1.589-1.62zm5.282.266l-1.882-2.6h-.819v5.54h.827v-4.159l1.859 2.527 1.92-2.587v4.22h.82v-5.54h-.781zm6.532-2.679A2.846 2.846 0 1 0 126 33.518a2.84 2.84 0 0 0-2.846-2.845zm0 4.887a2.045 2.045 0 1 1 2.019-2.041 2.016 2.016 0 0 1-2.019 2.041zm-32.402 6.498l-2.246-3.112h-.433v5.54h.44v-4.774l2.231 3.066 2.322-3.135v4.842h.432v-5.54h-.417zm7.017-3.185a2.846 2.846 0 1 0 2.846 2.845 2.847 2.847 0 0 0-2.846-2.845zm0 5.274a2.429 2.429 0 1 1 2.39-2.429 2.4 2.4 0 0 1-2.39 2.425zm8.275-3.47a1.756 1.756 0 0 0-1.821-1.73h-1.692v5.54h.44v-5.138h1.222a1.328 1.328 0 0 1 1.411 1.328 1.374 1.374 0 0 1-1.419 1.344h-.3l1.67 2.466h.516l-1.457-2.125a1.7 1.7 0 0 0 1.43-1.685zm3.088-1.73L107 44.487h.463l.592-1.548h2.618l.6 1.548h.463l-2.132-5.54zm-.918 3.575l1.153-2.99 1.146 2.99zm-78.829 10.2l-13.658-23.9L0 56.345l2.635 1.506 13.092-22.912 13.658 23.9 13.657-23.9 13.092 22.912 2.636-1.506-15.728-27.524z"/><path class="b" d="M29.385 38.757l-13.658-25.1L0 42.562l2.635 1.581 13.092-24.066 13.658 25.1 13.657-25.1 13.092 24.062 2.636-1.581-15.728-28.901z"/><path class="b" d="M29.385 23.9L15.727 0 0 27.524l2.635 1.506L15.727 6.117l13.658 23.9 13.657-23.9 13.092 22.912 2.636-1.506L43.042 0z"/></svg>