<svg xmlns="http://www.w3.org/2000/svg" viewBox="0 0 100 46.698"><defs><style>.b{fill:#60504d}</style></defs><path d="M97.207 22.046a1.943 1.943 0 1 0-1.918-1.943 1.916 1.916 0 0 0 1.918 1.943zm-19.026-3.704l-.923 2.392h1.84zm-.601 12.813a1.943 1.943 0 1 0 1.912 1.943 1.92 1.92 0 0 0-1.912-1.943zm-4.556-3.928h1.409l-.7-1.943zm12.747 6.498h1.84l-.917-2.392zm11.952-8.767a1.636 1.636 0 1 0 1.615 1.639 1.618 1.618 0 0 0-1.615-1.639z" fill="none"/><path class="b" d="M69.316 11.993l1.785 2.453 1.857-2.508v3.874h.346V11.38h-.334l-1.864 2.489-1.8-2.489h-.346v4.432h.352zm6.751 3.881a1.484 1.484 0 0 0 1.512-1.506v-2.987h-.352v3a1.157 1.157 0 0 1-2.313.006v-3.006h-.352v2.987a1.479 1.479 0 0 0 1.505 1.506zm3.863-.324a1.386 1.386 0 0 1-1.184-.631l-.292.225a1.762 1.762 0 0 0 1.475.729 1.313 1.313 0 0 0 1.414-1.257c0-.8-.643-1.044-1.263-1.25-.571-.188-1.1-.352-1.1-.923a.869.869 0 0 1 .959-.813 1.18 1.18 0 0 1 1.032.51l.273-.212a1.57 1.57 0 0 0-1.305-.607 1.2 1.2 0 0 0-1.317 1.123c0 .765.632 1 1.245 1.2.577.188 1.13.376 1.13.977a.971.971 0 0 1-1.067.929zm5.419-.072h-2.362v-1.724h2.362v-.328h-2.362v-1.712h2.362v-.334h-2.714v4.432h2.714zm2.407.396a1.484 1.484 0 0 0 1.511-1.506v-2.987h-.352v3a1.157 1.157 0 0 1-2.313.006v-3.006h-.352v2.987a1.48 1.48 0 0 0 1.506 1.506zm-29.054 2.007h.346v4.432h-.346zm1.978.53l2.865 3.9h.377v-4.429h-.352v3.886l-2.853-3.886h-.389v4.432h.352zm7.295-.529h-3.121v.322h1.384v4.11h.352v-4.11h1.384zm3.632 4.098h-2.362v-1.724h2.362v-.328h-2.362v-1.712h2.362v-.335h-2.714v4.432h2.714zm1.034.332h.35v-4.11h.977a1.062 1.062 0 0 1 1.13 1.063 1.1 1.1 0 0 1-1.135 1.075h-.237l1.336 1.973h.412l-1.166-1.7a1.358 1.358 0 0 0 1.141-1.347 1.405 1.405 0 0 0-1.458-1.384h-1.354zm4.026.002l.474-1.239h2.094l.479 1.239h.37l-1.706-4.432h-.376l-1.706 4.432zm1.524-3.964l.916 2.392h-1.839zm4.982 4.025a2.259 2.259 0 0 0 2.015-1.2l-.309-.158a1.879 1.879 0 0 1-1.706 1.02 1.946 1.946 0 0 1 0-3.892 1.9 1.9 0 0 1 1.651.966l.3-.176a2.275 2.275 0 1 0-1.954 3.436zm3.836-.061h.352v-4.11h1.384v-.322h-3.12v.322h1.384zm2.617-4.433h.346v4.432h-.346zm3.209 4.433l1.671-4.432h-.371l-1.475 3.94-1.476-3.94h-.364l1.663 4.432zm4.376.06a2.277 2.277 0 1 0-2.277-2.277 2.278 2.278 0 0 0 2.277 2.277zm0-4.219a1.943 1.943 0 1 1-1.918 1.943 1.915 1.915 0 0 1 1.918-1.943zm-36.903 8.31l-1.506-2.082h-.656v4.432h.662v-3.327l1.487 2.021 1.537-2.07v3.376h.656v-4.432h-.621zm3.23 2.35h2.659v-.632h-2v-1.281h2v-.625h-2v-1.269h2v-.625h-2.659zm7.874-2.192v-.237h-2.283v.625h1.59a1.447 1.447 0 0 1-1.506 1.227 1.642 1.642 0 0 1-.006-3.284 1.544 1.544 0 0 1 1.414.856l.577-.346a2.29 2.29 0 1 0-1.985 3.412 2.15 2.15 0 0 0 2.199-2.253zm2.667-2.24h-.68l-1.627 4.432h.693l.34-.947h1.87l.346.947h.686zm-1.044 2.853l.7-1.943.7 1.943zm3.354-2.853v4.432h2.453v-.632h-1.791v-3.8zm3.182 0h.662v4.432h-.662zm1.684.619h1.256v3.813h.656v-3.813h1.257v-.619h-3.169zm3.836-.619h.662v4.432h-.662zm3.181 1.871c-.51-.17-.977-.31-.977-.735a.658.658 0 0 1 .741-.613 1 1 0 0 1 .893.474l.541-.4a1.749 1.749 0 0 0-1.433-.656 1.3 1.3 0 0 0-1.421 1.208c0 .813.65 1.056 1.25 1.25.51.164 1 .309 1 .765a.729.729 0 0 1-.8.71 1.213 1.213 0 0 1-1.063-.643l-.583.455a1.973 1.973 0 0 0 1.651.808 1.379 1.379 0 0 0 1.475-1.33c-.005-.824-.668-1.087-1.274-1.293zm4.225.211l-1.506-2.082h-.656v4.432h.662v-3.327l1.487 2.021 1.536-2.07v3.376h.656v-4.432h-.625zm5.226-2.142A2.277 2.277 0 1 0 100 26.599a2.272 2.272 0 0 0-2.277-2.276zm0 3.91a1.636 1.636 0 1 1 1.615-1.633 1.613 1.613 0 0 1-1.615 1.633zm-25.709 5.141l-1.8-2.489h-.346v4.432h.352v-3.819l1.785 2.453 1.858-2.508v3.873h.346v-4.432h-.334zm5.57-2.549a2.277 2.277 0 1 0 2.277 2.276 2.277 2.277 0 0 0-2.277-2.276zm0 4.219a1.943 1.943 0 1 1 1.912-1.943 1.92 1.92 0 0 1-1.912 1.943zm6.452-2.776a1.4 1.4 0 0 0-1.457-1.384h-1.354v4.432h.352v-4.11h.977a1.062 1.062 0 0 1 1.129 1.063 1.1 1.1 0 0 1-1.135 1.075h-.237l1.336 1.973h.419l-1.166-1.7a1.358 1.358 0 0 0 1.136-1.349zm2.474-1.384l-1.706 4.432h.37l.473-1.239h2.094l.48 1.239h.371l-1.706-4.432zm-.735 2.86l.923-2.392.917 2.392zm-62.267 8.06L12.582 22.683 0 44.702l2.108 1.205 10.474-18.329 10.926 19.12 10.926-19.12 10.474 18.329 2.109-1.205-12.583-22.019z"/><path class="b" d="M23.508 30.708L12.582 10.926 0 33.707l2.108 1.246 10.474-18.964 10.926 19.782 10.926-19.782 10.474 18.964 2.109-1.246-12.583-22.781z"/><path class="b" d="M23.508 19.12L12.582 0 0 22.019l2.108 1.2L12.582 4.894l10.926 19.12 10.926-19.12 10.473 18.329 2.109-1.2L34.434 0z"/></svg>