<svg xmlns="http://www.w3.org/2000/svg" viewBox="0 0 60 96.518"><defs><style>.a{fill:#fff}</style></defs><path class="a" d="M35.961 92.6a1.77 1.77 0 0 0-1.836-1.744h-1.706v5.585h.444v-5.18h1.232a1.338 1.338 0 0 1 1.423 1.339 1.385 1.385 0 0 1-1.431 1.354h-.3l1.683 2.487h.52l-1.469-2.142a1.712 1.712 0 0 0 1.44-1.699zm-7.741-1.821a2.869 2.869 0 1 0 2.869 2.869 2.87 2.87 0 0 0-2.869-2.869zm0 5.318a2.449 2.449 0 1 1 2.41-2.449 2.42 2.42 0 0 1-2.41 2.449zm-6.989-2.104l-2.265-3.137h-.436v5.585h.444v-4.812l2.25 3.091 2.341-3.16v4.881h.436v-5.585h-.421zm17.913-3.137l-2.151 5.585h.467l.6-1.561h2.639l.6 1.561h.467l-2.15-5.585zm-.926 3.6l1.163-3.015 1.156 3.015zm-27.602-6.049h3.351v-.8H11.45v-1.614h2.517v-.788H11.45v-1.6h2.517v-.788h-3.351zm13.222-5.585h-.86l-2.051 5.585h.872l.428-1.194h2.357l.436 1.194h.865zm-1.316 3.6l.887-2.448.887 2.448zm30.995-3.677a2.869 2.869 0 1 0 2.869 2.869 2.864 2.864 0 0 0-2.869-2.869zm0 4.927a2.062 2.062 0 1 1 2.035-2.058 2.033 2.033 0 0 1-2.035 2.058zm-22.766-4.85h.834v5.585h-.834zm1.719.78h1.584v4.805h.826v-4.805h1.584v-.78H32.47zm8.936 1.576c-.643-.215-1.232-.39-1.232-.926a.828.828 0 0 1 .933-.773 1.262 1.262 0 0 1 1.125.6l.681-.505a2.205 2.205 0 0 0-1.806-.826 1.64 1.64 0 0 0-1.79 1.523c0 1.025.819 1.331 1.576 1.576.642.207 1.255.391 1.255.964a.919.919 0 0 1-1.01.9 1.529 1.529 0 0 1-1.339-.811l-.735.574a2.485 2.485 0 0 0 2.081 1.018 1.738 1.738 0 0 0 1.86-1.676c.001-1.049-.834-1.378-1.599-1.638zm-14.67-2.356v5.585h3.091v-.8H27.57v-4.79zm-6.233 2.823v-.3h-2.877v.788h2a1.824 1.824 0 0 1-1.9 1.546 2.07 2.07 0 0 1-.008-4.14 1.946 1.946 0 0 1 1.783 1.079l.727-.436a2.886 2.886 0 1 0-2.5 4.3 2.709 2.709 0 0 0 2.775-2.837zm-14.004-.199l-1.9-2.624h-.826v5.585h.834v-4.193l1.875 2.548 1.936-2.609v4.254h.826v-5.585h-.788zm40.285 0l-1.9-2.624h-.826v5.585h.834v-4.193l1.875 2.548 1.935-2.609v4.254h.826v-5.585h-.788zm-9.436-2.624h.834v5.585h-.834zm-15.322-8.247v5.585h.444v-5.18h1.227a1.339 1.339 0 0 1 1.423 1.339 1.385 1.385 0 0 1-1.431 1.354h-.3l1.683 2.487h.52l-1.469-2.142a1.712 1.712 0 0 0 1.438-1.7 1.77 1.77 0 0 0-1.836-1.744zm25.178 5.586l2.1-5.585h-.467l-1.859 4.966-1.859-4.966h-.459l2.1 5.585zm-31.019-5.586H12.25v.405h1.744v5.18h.444v-5.18h1.744zm12.563 0l-2.15 5.585h.467l.6-1.561h2.64l.6 1.561h.467l-2.15-5.585zm-.926 3.6l1.163-3.015 1.155 3.015zm15.284-3.6h.436v5.585h-.436zm-25.781 5.586h3.42v-.421h-2.98v-2.173h2.976v-.413h-2.976v-2.158h2.976v-.421h-3.416zM4.52 74.575h.436v5.585H4.52zm48.343 5.663a2.869 2.869 0 1 0-2.869-2.869 2.87 2.87 0 0 0 2.869 2.869zm0-5.318a2.449 2.449 0 1 1-2.418 2.449 2.414 2.414 0 0 1 2.418-2.449zm-15.835 3.611a2.368 2.368 0 0 1-2.15 1.286 2.453 2.453 0 0 1 0-4.9 2.394 2.394 0 0 1 2.081 1.216l.382-.222a2.852 2.852 0 1 0 .076 2.823zM6.93 75.241l3.612 4.92h.474v-5.585h-.444v4.9l-3.6-4.9h-.49v5.585h.444zm31.1-.261h1.745v5.18h.444v-5.18h1.74v-.405h-3.933zm-13.599-8.544V70.2a1.9 1.9 0 0 0 3.8 0v-3.764h-.444v3.78a1.458 1.458 0 1 1-2.915.008v-3.787zm6.743 5.256a1.747 1.747 0 0 1-1.492-.8l-.367.283a2.221 2.221 0 0 0 1.859.918 1.655 1.655 0 0 0 1.783-1.584c0-1-.811-1.316-1.592-1.576-.719-.237-1.392-.444-1.392-1.163a1.1 1.1 0 0 1 1.209-1.026 1.488 1.488 0 0 1 1.3.643l.344-.268a1.981 1.981 0 0 0-1.645-.765 1.518 1.518 0 0 0-1.66 1.416c0 .964.8 1.255 1.569 1.507.727.237 1.423.475 1.423 1.232a1.222 1.222 0 0 1-1.339 1.183zm7.664-5.256V70.2a1.9 1.9 0 0 0 3.8 0v-3.764h-.444v3.78a1.458 1.458 0 1 1-2.915.008v-3.787zm-18.744 3.137l-2.265-3.137h-.435v5.585h.444v-4.813l2.249 3.091 2.341-3.16v4.882h.436v-5.585h-.421zm14.129 2.448h3.418V71.6h-2.976v-2.173h2.976v-.413h-2.976v-2.161h2.976v-.421h-3.42zM30 52.176l-13.943-24.1L0 55.832l2.69 1.519 13.367-23.105L30 58.346l13.943-24.1L57.31 57.351 60 55.832 43.943 28.076z"/><path class="a" d="M30 37.875l-13.943-24.1L0 41.533l2.69 1.519 13.367-23.105L30 44.047l13.943-24.1L57.31 43.052 60 41.533l-16.057-27.76z"/><path class="a" d="M30 24.1L16.057 0 0 27.756l2.69 1.519L16.057 6.17 30 30.27l13.943-24.1L57.31 29.275 60 27.756 43.943 0z"/></svg>