<svg xmlns="http://www.w3.org/2000/svg" viewBox="0 0 512 512"><defs><style>.a{fill:#fff}</style></defs><path class="a" d="M366.933 170.667h-17.067a8.533 8.533 0 0 0 0 17.066h17.067a8.533 8.533 0 0 0 0-17.066zm0 34.133h-17.067a8.533 8.533 0 0 0 0 17.066h17.067a8.533 8.533 0 0 0 0-17.066zm0-68.267h-17.067a8.533 8.533 0 0 0 0 17.066h17.067a8.533 8.533 0 0 0 0-17.066zm0 273.067h-17.067a8.533 8.533 0 0 0 0 17.066h17.067a8.533 8.533 0 0 0 0-17.066zM179.2 136.533H128a8.536 8.536 0 0 0-8.533 8.533v119.467a8.536 8.536 0 0 0 8.533 8.533h51.2a8.536 8.536 0 0 0 8.533-8.533V145.067a8.537 8.537 0 0 0-8.533-8.534zM170.667 256h-34.133V153.6h34.133zm8.533 153.6H128a8.533 8.533 0 1 0 0 17.066h51.2a8.533 8.533 0 1 0 0-17.066zm0 34.133H128a8.533 8.533 0 1 0 0 17.066h51.2a8.533 8.533 0 1 0 0-17.066zm187.733 0h-17.067a8.533 8.533 0 1 0 0 17.066h17.067a8.533 8.533 0 1 0 0-17.066zm102.4 0H435.2a8.533 8.533 0 1 0 0 17.066h34.133a8.533 8.533 0 0 0 0-17.066zm-179.2-298.666a8.536 8.536 0 0 0-8.533-8.533h-34.133a8.536 8.536 0 0 0-8.533 8.533v119.467a8.536 8.536 0 0 0 8.533 8.533H281.6a8.536 8.536 0 0 0 8.533-8.533zM273.067 256H256V153.6h17.067zm196.266 153.6H435.2a8.533 8.533 0 0 0 0 17.066h34.133a8.533 8.533 0 0 0 0-17.066zM281.6 443.733h-34.133a8.533 8.533 0 1 0 0 17.066H281.6a8.533 8.533 0 1 0 0-17.066zM435.2 307.2a8.536 8.536 0 0 0 8.533-8.533v-85.333a8.533 8.533 0 1 0-17.066 0v85.333a8.536 8.536 0 0 0 8.533 8.533zm42.667-93.867a8.533 8.533 0 1 0-17.066 0v85.333a8.533 8.533 0 1 0 17.066 0z"/><path class="a" d="M486.4 68.267h-51.2a8.533 8.533 0 0 0 0 17.066h51.2a8.547 8.547 0 0 1 8.533 8.533V486.4a8.547 8.547 0 0 1-8.533 8.533h-76.8v-358.4h51.2a8.533 8.533 0 0 0 0-17.066h-51.2v-76.8a25.33 25.33 0 0 0-25.6-25.6h-51.2a25.631 25.631 0 0 0-25.6 25.6v452.267h-85.333V51.2H281.6a8.533 8.533 0 0 0 0-17.066h-59.733V25.6a25.33 25.33 0 0 0-25.6-25.6h-85.333a25.631 25.631 0 0 0-25.6 25.6v76.8H42.667a8.533 8.533 0 1 0 0 17.066h42.667v375.467H25.6a8.547 8.547 0 0 1-8.533-8.533V76.8a8.547 8.547 0 0 1 8.533-8.533h34.133a8.534 8.534 0 0 0 0-17.067H25.6A25.631 25.631 0 0 0 0 76.8v409.6A25.631 25.631 0 0 0 25.6 512h460.8a25.631 25.631 0 0 0 25.6-25.6V93.867a25.631 25.631 0 0 0-25.6-25.6zM204.8 494.933H102.4V68.267h76.8a8.533 8.533 0 0 0 0-17.067h-76.8V25.6a8.44 8.44 0 0 1 8.533-8.533h85.333A8.347 8.347 0 0 1 204.8 25.6v469.333zm187.733 0h-68.267v-409.6h42.667a8.533 8.533 0 0 0 0-17.066h-42.667v-25.6a8.44 8.44 0 0 1 8.533-8.533H384a8.346 8.346 0 0 1 8.533 8.533z"/><path class="a" d="M59.733 409.6H42.667a8.533 8.533 0 1 0 0 17.066h17.067a8.533 8.533 0 1 0 0-17.066zm0 34.133H42.667a8.533 8.533 0 1 0 0 17.066h17.067a8.533 8.533 0 1 0 0-17.066zM281.6 409.6h-34.133a8.533 8.533 0 1 0 0 17.066H281.6a8.533 8.533 0 1 0 0-17.066zM59.733 204.8H42.667a8.533 8.533 0 0 0 0 17.066h17.067a8.533 8.533 0 1 0 0-17.066zm0 34.133H42.667a8.534 8.534 0 0 0 0 17.067h17.067a8.534 8.534 0 0 0 0-17.067z"/></svg>