<svg xmlns="http://www.w3.org/2000/svg" viewBox="0 0 448.003 383.903"><path d="M320 378.2a5.093 5.093 0 0 0-4.2-4.3l-22.3-1.9c-11.8-3.1-20.5-16.2-22.3-28.3L270 336h-92l-1.2 7.6c-1.9 12.1-10.5 25.2-22.3 28.3l-22.3 1.9a5.456 5.456 0 0 0-4.2 4.3 5.129 5.129 0 0 0 5.1 5.8h181.8a5.053 5.053 0 0 0 5.1-5.7zM440.9 7a24.156 24.156 0 0 0-17-7H24.2a23.982 23.982 0 0 0-17 7A24.355 24.355 0 0 0 0 24v272a24.175 24.175 0 0 0 7.2 17 23.692 23.692 0 0 0 16.8 7h400a23.52 23.52 0 0 0 16.8-7 24.355 24.355 0 0 0 7.2-17V24a23.835 23.835 0 0 0-7.1-17zM224 296a8 8 0 1 1 8-8 8.024 8.024 0 0 1-8 8zm203.9-40H20.2a4.012 4.012 0 0 1-4-4V28a12.035 12.035 0 0 1 12-12h391.7a12.035 12.035 0 0 1 12 12v224a4.012 4.012 0 0 1-4 4z" fill="#fff"/></svg>