<svg xmlns="http://www.w3.org/2000/svg" viewBox="0 0 69.738 65.409"><path d="M51.135 28.674l-9-1.411v-15.7A6.771 6.771 0 0 0 35.372 4.8h-.1a6.771 6.771 0 0 0-6.762 6.759v25.22l-9.3-3.987a6.032 6.032 0 0 0-8.408 5.544v.088a6.036 6.036 0 0 0 2.02 4.5L28.51 56.878v6.777a1.754 1.754 0 0 0 3.507 0v-7.564a1.753 1.753 0 0 0-.588-1.31L15.152 40.308a2.527 2.527 0 0 1-.847-1.887v-.085a2.525 2.525 0 0 1 3.52-2.321l11.747 5.034a1.737 1.737 0 0 0 .863.133c.025 0 .048-.007.073-.01s.063-.008.094-.014.07-.016.1-.025l.058-.015c.038-.011.075-.025.112-.039l.047-.017a.716.716 0 0 0 .1-.048l.05-.024c.031-.016.061-.034.09-.052l.058-.035a.942.942 0 0 0 .072-.052l.067-.05c.022-.017.038-.033.057-.05s.048-.042.071-.065l.048-.051c.016-.017.046-.048.067-.074l.048-.063.053-.071c.017-.024.04-.064.06-.1.01-.016.02-.031.029-.048a1.742 1.742 0 0 0 .218-.847V11.559a3.26 3.26 0 0 1 3.257-3.257h.1a3.26 3.26 0 0 1 3.257 3.257v16.838a1.722 1.722 0 0 0 .011.191 1.752 1.752 0 0 0 1.478 1.907l10.492 1.645h.025a13.017 13.017 0 0 1 11.134 12.831v.179a18.611 18.611 0 0 1-2.094 8.558l-4.757 9.138a1.754 1.754 0 1 0 3.111 1.619l4.757-9.141a22.132 22.132 0 0 0 2.49-10.177v-.179a16.461 16.461 0 0 0-14.133-16.3zm-37.651-7.732a1.753 1.753 0 0 0 1.753-1.753v-6.964h7.629a1.754 1.754 0 0 0 0-3.507h-7.629V1.754a1.753 1.753 0 0 0-2.8-1.407L.707 9.064a1.754 1.754 0 0 0 0 2.815l11.73 8.718a1.754 1.754 0 0 0 1.047.345zm-1.754-5.24l-7.037-5.23 7.037-5.23v10.46zm57.3-6.637L57.299.342a1.753 1.753 0 0 0-2.8 1.407v6.965H46.87a1.754 1.754 0 0 0 0 3.507h7.629v6.965a1.753 1.753 0 0 0 2.8 1.407l11.731-8.718a1.753 1.753 0 0 0 0-2.815zm-11.023 6.638V5.242l7.038 5.231z" fill="#fff"/></svg>