<svg xmlns="http://www.w3.org/2000/svg" viewBox="0 0 413.539 448"><path d="M401.448 241.5c-14.585-14.577-36.054-15.89-50.639-1.312l-41.687 41.664c-10.852 10.836-23.93 10.859-31.564 1.852-5.057-5.968-3.061-24.374-1.644-36.049l20.907-171.849c1.867-15.353-9.07-30.185-24.43-32.051s-29.322 9.939-31.191 25.289l-23.061 134.977c-1.2 3.358-3.79 3.938-4.081-.582L206.209 28a28.015 28.015 0 0 0-56.029 0l-.552 176.752c.146 2.04-1.6 2.624-1.92.294L122.785 67.077c-2.75-15.219-17.323-26.2-32.548-23.453s-25.339 18.187-22.591 33.4l22.193 161.458c.023 2.872-.941 4.513-2.308.831L54.422 150.8c-5.18-14.572-21.2-23.065-35.776-17.889s-22.2 22.061-17.023 36.631l58.046 189.621c.3 1.046.624 2.085.953 3.118l.121.39c.011.031.025.058.035.088A123.481 123.481 0 0 0 178.196 448c35.116 0 71.591-12.378 99.357-33.672 29.99-18.051 126.071-121.347 126.071-121.347 14.59-14.581 12.411-36.901-2.176-51.481z" fill="#fff"/></svg>