<svg xmlns="http://www.w3.org/2000/svg" viewBox="0 0 512.002 455.615"><path d="M512 227.807a28.25 28.25 0 0 0-15.694-25.4l-38.122-19.061 38.122-19.06a28.4 28.4 0 0 0 0-50.794L281.09 5.887a56.419 56.419 0 0 0-50.185 0L15.691 113.498a28.4 28.4 0 0 0 0 50.791l38.121 19.06-38.123 19.058a28.4 28.4 0 0 0 .005 50.793l38.121 19.061L15.7 291.325a28.4 28.4 0 0 0 0 50.8l215.209 107.604a56.424 56.424 0 0 0 50.185 0L496.309 342.12a28.4 28.4 0 0 0 0-50.791l-38.122-19.061 38.123-19.061a28.25 28.25 0 0 0 15.69-25.4zM26.225 143.238a4.857 4.857 0 0 1 0-8.689l215.208-107.6a32.767 32.767 0 0 1 29.14 0l215.207 107.6a4.857 4.857 0 0 1 0 8.691l-215.2 107.6a32.76 32.76 0 0 1-29.139 0zm459.558 169.144a4.858 4.858 0 0 1 0 8.686l-215.208 107.6a32.757 32.757 0 0 1-29.139 0L26.225 321.069a4.857 4.857 0 0 1 0-8.689l53.912-26.956 150.772 75.383a56.422 56.422 0 0 0 50.184 0l150.772-75.386zm0-80.23l-215.207 107.6a32.757 32.757 0 0 1-29.139 0L26.225 232.154a4.857 4.857 0 0 1 0-8.689l53.908-26.958 150.776 75.387a56.416 56.416 0 0 0 50.183 0l150.774-75.387 53.908 26.954a4.858 4.858 0 0 1 0 8.69z" fill="#fff"/></svg>