<svg xmlns="http://www.w3.org/2000/svg" viewBox="0 0 482.462 512"><defs><style>.a{fill:#fff}</style></defs><path class="a" d="M479.71 138.557L349.271 3.018A9.853 9.853 0 0 0 342.176 0h-194.41a39.5 39.5 0 0 0-39.458 39.442v137.789H29.521A29.55 29.55 0 0 0 0 206.744v147.744A29.55 29.55 0 0 0 29.521 384h78.787v88.627A39.461 39.461 0 0 0 147.766 512h295.238a39.45 39.45 0 0 0 39.458-39.351V145.385a9.851 9.851 0 0 0-2.752-6.828zM344.616 26.581l107.079 111.265H344.616zM29.521 364.308a9.834 9.834 0 0 1-9.828-9.82V206.744a9.836 9.836 0 0 1 9.828-9.821h265.882a9.835 9.835 0 0 1 9.828 9.821v147.744a9.835 9.835 0 0 1-9.828 9.82zm433.248 108.341a19.735 19.735 0 0 1-19.766 19.659H147.766A19.745 19.745 0 0 1 128 472.628V384h167.4a29.55 29.55 0 0 0 29.521-29.512V206.744a29.55 29.55 0 0 0-29.521-29.513H128V39.442a19.78 19.78 0 0 1 19.766-19.75h177.157v128a9.846 9.846 0 0 0 9.846 9.846h128v315.111z"/><path class="a" d="M117.712 249.894a22.174 22.174 0 0 0-12.173-8.279q-4.731-1.269-20.308-1.269h-27.4v84.577h17.073v-31.9h11.135a97.447 97.447 0 0 0 17.712-1.212 24.743 24.743 0 0 0 8.856-4.01 23.193 23.193 0 0 0 7.183-8.336 27.589 27.589 0 0 0 2.827-13.1q-.002-10.096-4.905-16.471zm-14.625 23.279a11.208 11.208 0 0 1-5.337 4.154q-3.4 1.327-13.5 1.327h-9.346v-24h8.25a82.011 82.011 0 0 1 12.288.577 11.806 11.806 0 0 1 6.865 3.75 10.925 10.925 0 0 1 2.712 7.615 11.366 11.366 0 0 1-1.932 6.577zm101.625-9.721a36.956 36.956 0 0 0-8.077-13.7 28.287 28.287 0 0 0-12.75-7.789q-5.538-1.615-16.1-1.615h-31.208v84.577h32.135q9.462 0 15.115-1.789a30 30 0 0 0 12-6.75 37.3 37.3 0 0 0 9.058-14.942 55.584 55.584 0 0 0 2.6-18q-.004-11.886-2.773-19.992zm-16.616 34.731q-1.731 5.684-4.471 8.163a15.758 15.758 0 0 1-6.894 3.519 46.491 46.491 0 0 1-10.327.808h-12.75v-56.019h7.677q10.441 0 14.019.808a16.247 16.247 0 0 1 7.9 3.981 19.355 19.355 0 0 1 4.846 8.192q1.731 5.25 1.731 15.058t-1.731 15.49zm91.962-43.529v-14.308h-57.981v84.577h17.077v-35.942h35.308v-14.308h-35.308v-20.019z"/></svg>