<svg xmlns="http://www.w3.org/2000/svg" viewBox="0 0 448.1 416"><path d="M107 352s-23 25.3-23 40.7a23 23 0 1 0 46 0c0-15.4-23-40.7-23-40.7zm78-32s-23 25.3-23 40.7a23 23 0 1 0 46 0c0-15.4-23-40.7-23-40.7zm78 32s-23 25.3-23 40.7a23 23 0 1 0 46 0c0-15.4-23-40.7-23-40.7zm78-32s-23 25.3-23 40.7a23 23 0 1 0 46 0c0-15.4-23-40.7-23-40.7zm20.2-206.8C348.5 48.6 291.9 0 224 0c-39.7 0-76 14-100.9 45.4 34.3 2.6 66.1 15.2 90.7 39.8a143.1 143.1 0 0 1 37.4 64.8h-33.5c-15.3-43.7-56-75-105.7-75a113.092 113.092 0 0 0-20.6 2C38 88 0 132.4 0 187.5 0 249.6 47.4 304 109.2 304h242.7c51.5 0 96.2-46 96.2-97.8a93.4 93.4 0 0 0-86.9-93z" fill="#fff"/></svg>