<svg xmlns="http://www.w3.org/2000/svg" viewBox="0 0 416 416"><path d="M208 339a15.407 15.407 0 0 0-15.4 15.4v46.2a15.4 15.4 0 1 0 30.8 0v-46.2A15.407 15.407 0 0 0 208 339zm0-339a15.407 15.407 0 0 0-15.4 15.4v46.2a15.4 15.4 0 1 0 30.8 0V15.4A15.407 15.407 0 0 0 208 0zM77 208a15.407 15.407 0 0 0-15.4-15.4H15.4a15.4 15.4 0 1 0 0 30.8h46.2A15.407 15.407 0 0 0 77 208zm323.6-15.4h-46.2a15.4 15.4 0 1 0 0 30.8h46.2a15.4 15.4 0 0 0 0-30.8zM104.5 296.1a15.358 15.358 0 0 0-10.9 4.5l-32.7 32.7a15.415 15.415 0 0 0 21.8 21.8l32.7-32.7a15.4 15.4 0 0 0-10.9-26.3zm207-176.2a15.358 15.358 0 0 0 10.9-4.5l32.7-32.7a15.415 15.415 0 0 0-21.8-21.8l-32.7 32.7a15.4 15.4 0 0 0 10.9 26.3zm-228.8-59a15.415 15.415 0 0 0-21.8 21.8l32.7 32.7a15.415 15.415 0 0 0 21.8-21.8L82.7 60.9zm239.7 239.7a15.415 15.415 0 0 0-21.8 21.8l32.7 32.7a15.415 15.415 0 0 0 21.8-21.8zM208 112a96 96 0 1 0 96 96 96.153 96.153 0 0 0-96-96z" fill="#fff"/></svg>