<svg xmlns="http://www.w3.org/2000/svg" viewBox="0 0 16.712 15"><defs><style>.a{fill:#fff}</style></defs><path class="a" d="M12.383 13.642c0 .323-.37.585-.826.585H.826c-.456 0-.826-.262-.826-.585v-7.6c0-.323.37-.585.826-.585h10.732c.456 0 .826.262.826.585v7.6z"/><ellipse class="a" cx="2.064" cy="2.064" rx="2.064" ry="2.064" transform="translate(1.032 1.032)"/><ellipse class="a" cx="2.58" cy="2.58" rx="2.58" ry="2.58" transform="translate(6.027)"/><path class="a" d="M16.712 14.484a.583.583 0 0 1-.55.516 13.036 13.036 0 0 1-3.577-3.268V7.948c0-.38 3.027-3.268 3.577-3.268a.517.517 0 0 1 .55.516z"/></svg>